<svg xmlns="http://www.w3.org/2000/svg" viewBox="0 0 64 64">
  <rect width="64" height="64" rx="14" fill="#0f766e"/>
  <g fill="none" stroke="#f8fafc" stroke-width="4" stroke-linecap="round" stroke-linejoin="round">
    <path d="M51 30c.3-1.3.5-2.6.5-4 0-7-5.6-12.5-12.5-12.5-4 0-7.5 1.8-10 4.7a13.3 13.3 0 0 0-10-4.7C12.1 13.5 6.5 19 6.5 26c0 12.5 14.5 21 22.5 25.5 3.2-1.8 7.3-4.2 11.2-7.2" transform="translate(3 1)"/>
    <path d="M10 32h8l4-7 6 13 4-7h8" transform="translate(3 1)"/>
  </g>
</svg>
